<svg xmlns="http://www.w3.org/2000/svg" xmlns:xlink="http://www.w3.org/1999/xlink" width="378" zoomAndPan="magnify" viewBox="0 0 283.5 283.499996" height="378" preserveAspectRatio="xMidYMid meet" version="1.0"><defs><filter x="0%" y="0%" width="100%" xlink:type="simple" xlink:actuate="onLoad" height="100%" id="id1" xlink:show="other"><feColorMatrix values="0 0 0 0 1 0 0 0 0 1 0 0 0 0 1 0 0 0 1 0" color-interpolation-filters="sRGB"/></filter><mask id="id2"><g filter="url(#id1)"><rect x="-28.35" width="340.2" fill="rgb(0%, 0%, 0%)" y="-28.35" height="340.199996" fill-opacity="0.2784"/></g></mask><clipPath id="id3"><path d="M 3 3 L 187 3 L 187 165 L 3 165 Z M 3 3 " clip-rule="nonzero"/></clipPath><clipPath id="id4"><path d="M -14.871094 1.742188 L 196.828125 -13.542969 L 209.140625 157.015625 L -2.558594 172.296875 Z M -14.871094 1.742188 " clip-rule="nonzero"/></clipPath><clipPath id="id5"><path d="M -14.871094 1.742188 L 196.828125 -13.542969 L 209.140625 157.015625 L -2.558594 172.296875 Z M -14.871094 1.742188 " clip-rule="nonzero"/></clipPath><clipPath id="id6"><rect x="0" width="196" y="0" height="172"/></clipPath><clipPath id="id7"><path d="M 71 94 L 136 94 L 136 150 L 71 150 Z M 71 94 " clip-rule="nonzero"/></clipPath><clipPath id="id8"><path d="M 34.394531 75.347656 L 233.078125 57.335938 L 248.992188 232.867188 L 50.304688 250.878906 Z M 34.394531 75.347656 " clip-rule="nonzero"/></clipPath><clipPath id="id9"><path d="M 34.394531 75.347656 L 233.078125 57.335938 L 248.992188 232.867188 L 50.304688 250.878906 Z M 34.394531 75.347656 " clip-rule="nonzero"/></clipPath><clipPath id="id10"><path d="M 34.394531 75.347656 L 233.078125 57.335938 L 248.992188 232.867188 L 50.304688 250.878906 Z M 34.394531 75.347656 " clip-rule="nonzero"/></clipPath><clipPath id="id11"><path d="M 112 96 L 192 96 L 192 150 L 112 150 Z M 112 96 " clip-rule="nonzero"/></clipPath><clipPath id="id12"><path d="M 34.394531 75.347656 L 233.078125 57.335938 L 248.992188 232.867188 L 50.304688 250.878906 Z M 34.394531 75.347656 " clip-rule="nonzero"/></clipPath><clipPath id="id13"><path d="M 34.394531 75.347656 L 233.078125 57.335938 L 248.992188 232.867188 L 50.304688 250.878906 Z M 34.394531 75.347656 " clip-rule="nonzero"/></clipPath><clipPath id="id14"><path d="M 34.394531 75.347656 L 233.078125 57.335938 L 248.992188 232.867188 L 50.304688 250.878906 Z M 34.394531 75.347656 " clip-rule="nonzero"/></clipPath><clipPath id="id15"><path d="M 85 149 L 162 149 L 162 197 L 85 197 Z M 85 149 " clip-rule="nonzero"/></clipPath><clipPath id="id16"><path d="M 34.394531 75.347656 L 233.078125 57.335938 L 248.992188 232.867188 L 50.304688 250.878906 Z M 34.394531 75.347656 " clip-rule="nonzero"/></clipPath><clipPath id="id17"><path d="M 34.394531 75.347656 L 233.078125 57.335938 L 248.992188 232.867188 L 50.304688 250.878906 Z M 34.394531 75.347656 " clip-rule="nonzero"/></clipPath><clipPath id="id18"><path d="M 34.394531 75.347656 L 233.078125 57.335938 L 248.992188 232.867188 L 50.304688 250.878906 Z M 34.394531 75.347656 " clip-rule="nonzero"/></clipPath><clipPath id="id19"><path d="M 112 114 L 192 114 L 192 181 L 112 181 Z M 112 114 " clip-rule="nonzero"/></clipPath><clipPath id="id20"><path d="M 34.394531 75.347656 L 233.078125 57.335938 L 248.992188 232.867188 L 50.304688 250.878906 Z M 34.394531 75.347656 " clip-rule="nonzero"/></clipPath><clipPath id="id21"><path d="M 34.394531 75.347656 L 233.078125 57.335938 L 248.992188 232.867188 L 50.304688 250.878906 Z M 34.394531 75.347656 " clip-rule="nonzero"/></clipPath><clipPath id="id22"><path d="M 34.394531 75.347656 L 233.078125 57.335938 L 248.992188 232.867188 L 50.304688 250.878906 Z M 34.394531 75.347656 " clip-rule="nonzero"/></clipPath><clipPath id="id23"><path d="M 43 94 L 113 94 L 113 150 L 43 150 Z M 43 94 " clip-rule="nonzero"/></clipPath><clipPath id="id24"><path d="M 34.394531 75.347656 L 233.078125 57.335938 L 248.992188 232.867188 L 50.304688 250.878906 Z M 34.394531 75.347656 " clip-rule="nonzero"/></clipPath><clipPath id="id25"><path d="M 34.394531 75.347656 L 233.078125 57.335938 L 248.992188 232.867188 L 50.304688 250.878906 Z M 34.394531 75.347656 " clip-rule="nonzero"/></clipPath><clipPath id="id26"><path d="M 34.394531 75.347656 L 233.078125 57.335938 L 248.992188 232.867188 L 50.304688 250.878906 Z M 34.394531 75.347656 " clip-rule="nonzero"/></clipPath><clipPath id="id27"><path d="M 85 180 L 162 180 L 162 219 L 85 219 Z M 85 180 " clip-rule="nonzero"/></clipPath><clipPath id="id28"><path d="M 34.394531 75.347656 L 233.078125 57.335938 L 248.992188 232.867188 L 50.304688 250.878906 Z M 34.394531 75.347656 " clip-rule="nonzero"/></clipPath><clipPath id="id29"><path d="M 34.394531 75.347656 L 233.078125 57.335938 L 248.992188 232.867188 L 50.304688 250.878906 Z M 34.394531 75.347656 " clip-rule="nonzero"/></clipPath><clipPath id="id30"><path d="M 34.394531 75.347656 L 233.078125 57.335938 L 248.992188 232.867188 L 50.304688 250.878906 Z M 34.394531 75.347656 " clip-rule="nonzero"/></clipPath><clipPath id="id31"><path d="M 161 114 L 240 114 L 240 181 L 161 181 Z M 161 114 " clip-rule="nonzero"/></clipPath><clipPath id="id32"><path d="M 34.394531 75.347656 L 233.078125 57.335938 L 248.992188 232.867188 L 50.304688 250.878906 Z M 34.394531 75.347656 " clip-rule="nonzero"/></clipPath><clipPath id="id33"><path d="M 34.394531 75.347656 L 233.078125 57.335938 L 248.992188 232.867188 L 50.304688 250.878906 Z M 34.394531 75.347656 " clip-rule="nonzero"/></clipPath><clipPath id="id34"><path d="M 34.394531 75.347656 L 233.078125 57.335938 L 248.992188 232.867188 L 50.304688 250.878906 Z M 34.394531 75.347656 " clip-rule="nonzero"/></clipPath><clipPath id="id35"><path d="M 161 132 L 240 132 L 240 189 L 161 189 Z M 161 132 " clip-rule="nonzero"/></clipPath><clipPath id="id36"><path d="M 34.394531 75.347656 L 233.078125 57.335938 L 248.992188 232.867188 L 50.304688 250.878906 Z M 34.394531 75.347656 " clip-rule="nonzero"/></clipPath><clipPath id="id37"><path d="M 34.394531 75.347656 L 233.078125 57.335938 L 248.992188 232.867188 L 50.304688 250.878906 Z M 34.394531 75.347656 " clip-rule="nonzero"/></clipPath><clipPath id="id38"><path d="M 34.394531 75.347656 L 233.078125 57.335938 L 248.992188 232.867188 L 50.304688 250.878906 Z M 34.394531 75.347656 " clip-rule="nonzero"/></clipPath><clipPath id="id39"><path d="M 137 180 L 208 180 L 208 219 L 137 219 Z M 137 180 " clip-rule="nonzero"/></clipPath><clipPath id="id40"><path d="M 34.394531 75.347656 L 233.078125 57.335938 L 248.992188 232.867188 L 50.304688 250.878906 Z M 34.394531 75.347656 " clip-rule="nonzero"/></clipPath><clipPath id="id41"><path d="M 34.394531 75.347656 L 233.078125 57.335938 L 248.992188 232.867188 L 50.304688 250.878906 Z M 34.394531 75.347656 " clip-rule="nonzero"/></clipPath><clipPath id="id42"><path d="M 34.394531 75.347656 L 233.078125 57.335938 L 248.992188 232.867188 L 50.304688 250.878906 Z M 34.394531 75.347656 " clip-rule="nonzero"/></clipPath><clipPath id="id43"><path d="M 137 188 L 208 188 L 208 243 L 137 243 Z M 137 188 " clip-rule="nonzero"/></clipPath><clipPath id="id44"><path d="M 34.394531 75.347656 L 233.078125 57.335938 L 248.992188 232.867188 L 50.304688 250.878906 Z M 34.394531 75.347656 " clip-rule="nonzero"/></clipPath><clipPath id="id45"><path d="M 34.394531 75.347656 L 233.078125 57.335938 L 248.992188 232.867188 L 50.304688 250.878906 Z M 34.394531 75.347656 " clip-rule="nonzero"/></clipPath><clipPath id="id46"><path d="M 34.394531 75.347656 L 233.078125 57.335938 L 248.992188 232.867188 L 50.304688 250.878906 Z M 34.394531 75.347656 " clip-rule="nonzero"/></clipPath><clipPath id="id47"><path d="M 135.429688 195.40625 L 208.085938 188.820312 L 212.378906 236.1875 L 139.722656 242.773438 Z M 135.429688 195.40625 " clip-rule="nonzero"/></clipPath><clipPath id="id48"><path d="M 135.429688 195.40625 L 208.085938 188.820312 L 212.375 236.167969 L 139.71875 242.753906 Z M 135.429688 195.40625 " clip-rule="nonzero"/></clipPath><clipPath id="id49"><path d="M 85 196 L 148 196 L 148 243 L 85 243 Z M 85 196 " clip-rule="nonzero"/></clipPath><clipPath id="id50"><path d="M 34.394531 75.347656 L 233.078125 57.335938 L 248.992188 232.867188 L 50.304688 250.878906 Z M 34.394531 75.347656 " clip-rule="nonzero"/></clipPath><clipPath id="id51"><path d="M 34.394531 75.347656 L 233.078125 57.335938 L 248.992188 232.867188 L 50.304688 250.878906 Z M 34.394531 75.347656 " clip-rule="nonzero"/></clipPath><clipPath id="id52"><path d="M 34.394531 75.347656 L 233.078125 57.335938 L 248.992188 232.867188 L 50.304688 250.878906 Z M 34.394531 75.347656 " clip-rule="nonzero"/></clipPath><clipPath id="id53"><path d="M 84.644531 195.996094 L 143.007812 190.707031 L 147.664062 242.054688 L 89.300781 247.34375 Z M 84.644531 195.996094 " clip-rule="nonzero"/></clipPath><clipPath id="id54"><path d="M 84.644531 195.996094 L 143.007812 190.707031 L 147.660156 242.03125 L 89.296875 247.324219 Z M 84.644531 195.996094 " clip-rule="nonzero"/></clipPath><clipPath id="id55"><path d="M 43 129 L 113 129 L 113 197 L 43 197 Z M 43 129 " clip-rule="nonzero"/></clipPath><clipPath id="id56"><path d="M 34.394531 75.347656 L 233.078125 57.335938 L 248.992188 232.867188 L 50.304688 250.878906 Z M 34.394531 75.347656 " clip-rule="nonzero"/></clipPath><clipPath id="id57"><path d="M 34.394531 75.347656 L 233.078125 57.335938 L 248.992188 232.867188 L 50.304688 250.878906 Z M 34.394531 75.347656 " clip-rule="nonzero"/></clipPath><clipPath id="id58"><path d="M 34.394531 75.347656 L 233.078125 57.335938 L 248.992188 232.867188 L 50.304688 250.878906 Z M 34.394531 75.347656 " clip-rule="nonzero"/></clipPath><clipPath id="id59"><path d="M 39 105 L 86 105 L 86 197 L 39 197 Z M 39 105 " clip-rule="nonzero"/></clipPath><clipPath id="id60"><path d="M 34.394531 75.347656 L 233.078125 57.335938 L 248.992188 232.867188 L 50.304688 250.878906 Z M 34.394531 75.347656 " clip-rule="nonzero"/></clipPath><clipPath id="id61"><path d="M 34.394531 75.347656 L 233.078125 57.335938 L 248.992188 232.867188 L 50.304688 250.878906 Z M 34.394531 75.347656 " clip-rule="nonzero"/></clipPath><clipPath id="id62"><path d="M 34.394531 75.347656 L 233.078125 57.335938 L 248.992188 232.867188 L 50.304688 250.878906 Z M 34.394531 75.347656 " clip-rule="nonzero"/></clipPath><clipPath id="id63"><path d="M 191 84 L 240 84 L 240 133 L 191 133 Z M 191 84 " clip-rule="nonzero"/></clipPath><clipPath id="id64"><path d="M 34.394531 75.347656 L 233.078125 57.335938 L 248.992188 232.867188 L 50.304688 250.878906 Z M 34.394531 75.347656 " clip-rule="nonzero"/></clipPath><clipPath id="id65"><path d="M 34.394531 75.347656 L 233.078125 57.335938 L 248.992188 232.867188 L 50.304688 250.878906 Z M 34.394531 75.347656 " clip-rule="nonzero"/></clipPath><clipPath id="id66"><path d="M 34.394531 75.347656 L 233.078125 57.335938 L 248.992188 232.867188 L 50.304688 250.878906 Z M 34.394531 75.347656 " clip-rule="nonzero"/></clipPath><clipPath id="id67"><path d="M 225 73 L 240 73 L 240 133 L 225 133 Z M 225 73 " clip-rule="nonzero"/></clipPath><clipPath id="id68"><path d="M 34.394531 75.347656 L 233.078125 57.335938 L 248.992188 232.867188 L 50.304688 250.878906 Z M 34.394531 75.347656 " clip-rule="nonzero"/></clipPath><clipPath id="id69"><path d="M 34.394531 75.347656 L 233.078125 57.335938 L 248.992188 232.867188 L 50.304688 250.878906 Z M 34.394531 75.347656 " clip-rule="nonzero"/></clipPath><clipPath id="id70"><path d="M 34.394531 75.347656 L 233.078125 57.335938 L 248.992188 232.867188 L 50.304688 250.878906 Z M 34.394531 75.347656 " clip-rule="nonzero"/></clipPath><clipPath id="id71"><path d="M 182 69 L 226 69 L 226 85 L 182 85 Z M 182 69 " clip-rule="nonzero"/></clipPath><clipPath id="id72"><path d="M 34.394531 75.347656 L 233.078125 57.335938 L 248.992188 232.867188 L 50.304688 250.878906 Z M 34.394531 75.347656 " clip-rule="nonzero"/></clipPath><clipPath id="id73"><path d="M 34.394531 75.347656 L 233.078125 57.335938 L 248.992188 232.867188 L 50.304688 250.878906 Z M 34.394531 75.347656 " clip-rule="nonzero"/></clipPath><clipPath id="id74"><path d="M 34.394531 75.347656 L 233.078125 57.335938 L 248.992188 232.867188 L 50.304688 250.878906 Z M 34.394531 75.347656 " clip-rule="nonzero"/></clipPath><clipPath id="id75"><path d="M 182 69 L 226 69 L 226 115 L 182 115 Z M 182 69 " clip-rule="nonzero"/></clipPath><clipPath id="id76"><path d="M 34.394531 75.347656 L 233.078125 57.335938 L 248.992188 232.867188 L 50.304688 250.878906 Z M 34.394531 75.347656 " clip-rule="nonzero"/></clipPath><clipPath id="id77"><path d="M 34.394531 75.347656 L 233.078125 57.335938 L 248.992188 232.867188 L 50.304688 250.878906 Z M 34.394531 75.347656 " clip-rule="nonzero"/></clipPath><clipPath id="id78"><path d="M 34.394531 75.347656 L 233.078125 57.335938 L 248.992188 232.867188 L 50.304688 250.878906 Z M 34.394531 75.347656 " clip-rule="nonzero"/></clipPath><clipPath id="id79"><path d="M 43 76 L 72 76 L 72 130 L 43 130 Z M 43 76 " clip-rule="nonzero"/></clipPath><clipPath id="id80"><path d="M 34.394531 75.347656 L 233.078125 57.335938 L 248.992188 232.867188 L 50.304688 250.878906 Z M 34.394531 75.347656 " clip-rule="nonzero"/></clipPath><clipPath id="id81"><path d="M 34.394531 75.347656 L 233.078125 57.335938 L 248.992188 232.867188 L 50.304688 250.878906 Z M 34.394531 75.347656 " clip-rule="nonzero"/></clipPath><clipPath id="id82"><path d="M 34.394531 75.347656 L 233.078125 57.335938 L 248.992188 232.867188 L 50.304688 250.878906 Z M 34.394531 75.347656 " clip-rule="nonzero"/></clipPath><clipPath id="id83"><path d="M 39 76 L 58 76 L 58 130 L 39 130 Z M 39 76 " clip-rule="nonzero"/></clipPath><clipPath id="id84"><path d="M 34.394531 75.347656 L 233.078125 57.335938 L 248.992188 232.867188 L 50.304688 250.878906 Z M 34.394531 75.347656 " clip-rule="nonzero"/></clipPath><clipPath id="id85"><path d="M 34.394531 75.347656 L 233.078125 57.335938 L 248.992188 232.867188 L 50.304688 250.878906 Z M 34.394531 75.347656 " clip-rule="nonzero"/></clipPath><clipPath id="id86"><path d="M 34.394531 75.347656 L 233.078125 57.335938 L 248.992188 232.867188 L 50.304688 250.878906 Z M 34.394531 75.347656 " clip-rule="nonzero"/></clipPath><clipPath id="id87"><path d="M 57 70 L 93 70 L 93 95 L 57 95 Z M 57 70 " clip-rule="nonzero"/></clipPath><clipPath id="id88"><path d="M 34.394531 75.347656 L 233.078125 57.335938 L 248.992188 232.867188 L 50.304688 250.878906 Z M 34.394531 75.347656 " clip-rule="nonzero"/></clipPath><clipPath id="id89"><path d="M 34.394531 75.347656 L 233.078125 57.335938 L 248.992188 232.867188 L 50.304688 250.878906 Z M 34.394531 75.347656 " clip-rule="nonzero"/></clipPath><clipPath id="id90"><path d="M 34.394531 75.347656 L 233.078125 57.335938 L 248.992188 232.867188 L 50.304688 250.878906 Z M 34.394531 75.347656 " clip-rule="nonzero"/></clipPath><clipPath id="id91"><path d="M 135 69 L 192 69 L 192 115 L 135 115 Z M 135 69 " clip-rule="nonzero"/></clipPath><clipPath id="id92"><path d="M 34.394531 75.347656 L 233.078125 57.335938 L 248.992188 232.867188 L 50.304688 250.878906 Z M 34.394531 75.347656 " clip-rule="nonzero"/></clipPath><clipPath id="id93"><path d="M 34.394531 75.347656 L 233.078125 57.335938 L 248.992188 232.867188 L 50.304688 250.878906 Z M 34.394531 75.347656 " clip-rule="nonzero"/></clipPath><clipPath id="id94"><path d="M 34.394531 75.347656 L 233.078125 57.335938 L 248.992188 232.867188 L 50.304688 250.878906 Z M 34.394531 75.347656 " clip-rule="nonzero"/></clipPath><clipPath id="id95"><path d="M 175 62 L 226 62 L 226 74 L 175 74 Z M 175 62 " clip-rule="nonzero"/></clipPath><clipPath id="id96"><path d="M 34.394531 75.347656 L 233.078125 57.335938 L 248.992188 232.867188 L 50.304688 250.878906 Z M 34.394531 75.347656 " clip-rule="nonzero"/></clipPath><clipPath id="id97"><path d="M 34.394531 75.347656 L 233.078125 57.335938 L 248.992188 232.867188 L 50.304688 250.878906 Z M 34.394531 75.347656 " clip-rule="nonzero"/></clipPath><clipPath id="id98"><path d="M 34.394531 75.347656 L 233.078125 57.335938 L 248.992188 232.867188 L 50.304688 250.878906 Z M 34.394531 75.347656 " clip-rule="nonzero"/></clipPath><clipPath id="id99"><path d="M 135 62 L 183 62 L 183 97 L 135 97 Z M 135 62 " clip-rule="nonzero"/></clipPath><clipPath id="id100"><path d="M 34.394531 75.347656 L 233.078125 57.335938 L 248.992188 232.867188 L 50.304688 250.878906 Z M 34.394531 75.347656 " clip-rule="nonzero"/></clipPath><clipPath id="id101"><path d="M 34.394531 75.347656 L 233.078125 57.335938 L 248.992188 232.867188 L 50.304688 250.878906 Z M 34.394531 75.347656 " clip-rule="nonzero"/></clipPath><clipPath id="id102"><path d="M 34.394531 75.347656 L 233.078125 57.335938 L 248.992188 232.867188 L 50.304688 250.878906 Z M 34.394531 75.347656 " clip-rule="nonzero"/></clipPath><clipPath id="id103"><path d="M 71 70 L 136 70 L 136 97 L 71 97 Z M 71 70 " clip-rule="nonzero"/></clipPath><clipPath id="id104"><path d="M 34.394531 75.347656 L 233.078125 57.335938 L 248.992188 232.867188 L 50.304688 250.878906 Z M 34.394531 75.347656 " clip-rule="nonzero"/></clipPath><clipPath id="id105"><path d="M 34.394531 75.347656 L 233.078125 57.335938 L 248.992188 232.867188 L 50.304688 250.878906 Z M 34.394531 75.347656 " clip-rule="nonzero"/></clipPath><clipPath id="id106"><path d="M 34.394531 75.347656 L 233.078125 57.335938 L 248.992188 232.867188 L 50.304688 250.878906 Z M 34.394531 75.347656 " clip-rule="nonzero"/></clipPath><clipPath id="id107"><path d="M 135 62 L 176 62 L 176 97 L 135 97 Z M 135 62 " clip-rule="nonzero"/></clipPath><clipPath id="id108"><path d="M 34.394531 75.347656 L 233.078125 57.335938 L 248.992188 232.867188 L 50.304688 250.878906 Z M 34.394531 75.347656 " clip-rule="nonzero"/></clipPath><clipPath id="id109"><path d="M 34.394531 75.347656 L 233.078125 57.335938 L 248.992188 232.867188 L 50.304688 250.878906 Z M 34.394531 75.347656 " clip-rule="nonzero"/></clipPath><clipPath id="id110"><path d="M 34.394531 75.347656 L 233.078125 57.335938 L 248.992188 232.867188 L 50.304688 250.878906 Z M 34.394531 75.347656 " clip-rule="nonzero"/></clipPath><clipPath id="id111"><path d="M 92 70 L 136 70 L 136 97 L 92 97 Z M 92 70 " clip-rule="nonzero"/></clipPath><clipPath id="id112"><path d="M 34.394531 75.347656 L 233.078125 57.335938 L 248.992188 232.867188 L 50.304688 250.878906 Z M 34.394531 75.347656 " clip-rule="nonzero"/></clipPath><clipPath id="id113"><path d="M 34.394531 75.347656 L 233.078125 57.335938 L 248.992188 232.867188 L 50.304688 250.878906 Z M 34.394531 75.347656 " clip-rule="nonzero"/></clipPath><clipPath id="id114"><path d="M 34.394531 75.347656 L 233.078125 57.335938 L 248.992188 232.867188 L 50.304688 250.878906 Z M 34.394531 75.347656 " clip-rule="nonzero"/></clipPath></defs><g mask="url(#id2)"><g transform="matrix(1, 0, 0, 1, 52, 91)"><g clip-path="url(#id6)"><g clip-path="url(#id3)"><g clip-path="url(#id4)"><g clip-path="url(#id5)"><path fill="rgb(100%, 26.269531%, 46.669006%)" d="M 161.675781 6.574219 C 124.03125 -8.265625 94.347656 41.058594 94.347656 41.058594 C 94.347656 41.058594 57.890625 -3.492188 22.765625 16.605469 C -12.359375 36.703125 5.324219 85.078125 31.003906 111.332031 C 59.960938 140.929688 103.273438 164.664062 103.273438 164.664062 C 103.273438 164.664062 142.726562 134.957031 167.128906 101.503906 C 188.773438 71.832031 199.324219 21.421875 161.675781 6.574219 " fill-opacity="1" fill-rule="nonzero"/></g></g></g></g></g></g><g clip-path="url(#id7)"><g clip-path="url(#id8)"><g clip-path="url(#id9)"><g clip-path="url(#id10)"><path fill="rgb(99.21875%, 32.159424%, 39.99939%)" d="M 71.265625 94.714844 L 135.820312 96.960938 L 112.863281 149.796875 Z M 71.265625 94.714844 " fill-opacity="1" fill-rule="nonzero"/></g></g></g></g><g clip-path="url(#id11)"><g clip-path="url(#id12)"><g clip-path="url(#id13)"><g clip-path="url(#id14)"><path fill="rgb(99.21875%, 38.42926%, 46.269226%)" d="M 112.863281 149.796875 L 135.820312 96.960938 L 191.933594 114.585938 Z M 112.863281 149.796875 " fill-opacity="1" fill-rule="nonzero"/></g></g></g></g><g clip-path="url(#id15)"><g clip-path="url(#id16)"><g clip-path="url(#id17)"><g clip-path="url(#id18)"><path fill="rgb(99.21875%, 14.509583%, 25.099182%)" d="M 112.863281 149.796875 L 85.007812 196.363281 L 161.113281 180.578125 Z M 112.863281 149.796875 " fill-opacity="1" fill-rule="nonzero"/></g></g></g></g><g clip-path="url(#id19)"><g clip-path="url(#id20)"><g clip-path="url(#id21)"><g clip-path="url(#id22)"><path fill="rgb(99.21875%, 0%, 0%)" d="M 112.863281 149.796875 L 191.933594 114.585938 L 161.113281 180.578125 Z M 112.863281 149.796875 " fill-opacity="1" fill-rule="nonzero"/></g></g></g></g><g clip-path="url(#id23)"><g clip-path="url(#id24)"><g clip-path="url(#id25)"><g clip-path="url(#id26)"><path fill="rgb(99.21875%, 0%, 0%)" d="M 71.265625 94.714844 L 112.863281 149.796875 L 43.355469 129.832031 Z M 71.265625 94.714844 " fill-opacity="1" fill-rule="nonzero"/></g></g></g></g><g clip-path="url(#id27)"><g clip-path="url(#id28)"><g clip-path="url(#id29)"><g clip-path="url(#id30)"><path fill="rgb(99.21875%, 16.468811%, 27.059937%)" d="M 137.585938 218.457031 L 161.113281 180.578125 L 85.007812 196.363281 Z M 137.585938 218.457031 " fill-opacity="1" fill-rule="nonzero"/></g></g></g></g><g clip-path="url(#id31)"><g clip-path="url(#id32)"><g clip-path="url(#id33)"><g clip-path="url(#id34)"><path fill="rgb(99.21875%, 10.198975%, 18.818665%)" d="M 191.933594 114.585938 L 239.808594 132.5625 L 161.113281 180.578125 Z M 191.933594 114.585938 " fill-opacity="1" fill-rule="nonzero"/></g></g></g></g><g clip-path="url(#id35)"><g clip-path="url(#id36)"><g clip-path="url(#id37)"><g clip-path="url(#id38)"><path fill="rgb(99.21875%, 18.03894%, 26.669312%)" d="M 207.925781 188.972656 L 239.808594 132.5625 L 161.113281 180.578125 Z M 207.925781 188.972656 " fill-opacity="1" fill-rule="nonzero"/></g></g></g></g><g clip-path="url(#id39)"><g clip-path="url(#id40)"><g clip-path="url(#id41)"><g clip-path="url(#id42)"><path fill="rgb(99.21875%, 18.429565%, 26.669312%)" d="M 137.585938 218.457031 L 207.925781 188.972656 L 161.113281 180.578125 Z M 137.585938 218.457031 " fill-opacity="1" fill-rule="nonzero"/></g></g></g></g><g clip-path="url(#id43)"><g clip-path="url(#id44)"><g clip-path="url(#id45)"><g clip-path="url(#id46)"><g clip-path="url(#id47)"><g clip-path="url(#id48)"><path fill="rgb(99.21875%, 29.019165%, 35.688782%)" d="M 147.597656 242.039062 L 137.585938 218.457031 L 207.925781 188.972656 Z M 147.597656 242.039062 " fill-opacity="1" fill-rule="nonzero"/></g></g></g></g></g></g><g clip-path="url(#id49)"><g clip-path="url(#id50)"><g clip-path="url(#id51)"><g clip-path="url(#id52)"><g clip-path="url(#id53)"><g clip-path="url(#id54)"><path fill="rgb(99.21875%, 36.859131%, 44.309998%)" d="M 85.007812 196.363281 L 147.597656 242.039062 L 137.585938 218.457031 Z M 85.007812 196.363281 " fill-opacity="1" fill-rule="nonzero"/></g></g></g></g></g></g><g clip-path="url(#id55)"><g clip-path="url(#id56)"><g clip-path="url(#id57)"><g clip-path="url(#id58)"><path fill="rgb(99.21875%, 18.03894%, 28.239441%)" d="M 43.355469 129.832031 L 112.863281 149.796875 L 85.007812 196.363281 Z M 43.355469 129.832031 " fill-opacity="1" fill-rule="nonzero"/></g></g></g></g><g clip-path="url(#id59)"><g clip-path="url(#id60)"><g clip-path="url(#id61)"><g clip-path="url(#id62)"><path fill="rgb(99.21875%, 36.859131%, 44.309998%)" d="M 41.921875 157.414062 L 39.183594 105.523438 L 43.355469 129.832031 L 85.007812 196.363281 L 41.921875 157.414062 " fill-opacity="1" fill-rule="nonzero"/></g></g></g></g><g clip-path="url(#id63)"><g clip-path="url(#id64)"><g clip-path="url(#id65)"><g clip-path="url(#id66)"><path fill="rgb(99.21875%, 0%, 0%)" d="M 225.839844 84.851562 L 239.808594 132.5625 L 191.933594 114.585938 Z M 225.839844 84.851562 " fill-opacity="1" fill-rule="nonzero"/></g></g></g></g><g clip-path="url(#id67)"><g clip-path="url(#id68)"><g clip-path="url(#id69)"><g clip-path="url(#id70)"><path fill="rgb(99.21875%, 64.709473%, 74.508667%)" d="M 225.753906 73.007812 L 225.839844 84.851562 L 239.808594 132.5625 Z M 225.753906 73.007812 " fill-opacity="1" fill-rule="nonzero"/></g></g></g></g><g clip-path="url(#id71)"><g clip-path="url(#id72)"><g clip-path="url(#id73)"><g clip-path="url(#id74)"><path fill="rgb(99.21875%, 40.388489%, 47.839355%)" d="M 182.96875 69.976562 L 225.753906 73.007812 L 225.839844 84.851562 Z M 182.96875 69.976562 " fill-opacity="1" fill-rule="nonzero"/></g></g></g></g><g clip-path="url(#id75)"><g clip-path="url(#id76)"><g clip-path="url(#id77)"><g clip-path="url(#id78)"><path fill="rgb(99.21875%, 31.759644%, 38.819885%)" d="M 191.933594 114.585938 L 182.96875 69.976562 L 225.839844 84.851562 Z M 191.933594 114.585938 " fill-opacity="1" fill-rule="nonzero"/></g></g></g></g><g clip-path="url(#id79)"><g clip-path="url(#id80)"><g clip-path="url(#id81)"><g clip-path="url(#id82)"><path fill="rgb(99.21875%, 64.709473%, 74.508667%)" d="M 57.40625 76.421875 L 43.355469 129.832031 L 71.265625 94.714844 Z M 57.40625 76.421875 " fill-opacity="1" fill-rule="nonzero"/></g></g></g></g><g clip-path="url(#id83)"><g clip-path="url(#id84)"><g clip-path="url(#id85)"><g clip-path="url(#id86)"><path fill="rgb(99.21875%, 32.159424%, 39.99939%)" d="M 39.183594 105.523438 L 57.40625 76.421875 L 43.355469 129.832031 Z M 39.183594 105.523438 " fill-opacity="1" fill-rule="nonzero"/></g></g></g></g><g clip-path="url(#id87)"><g clip-path="url(#id88)"><g clip-path="url(#id89)"><g clip-path="url(#id90)"><path fill="rgb(99.21875%, 36.859131%, 44.309998%)" d="M 92.648438 70.066406 L 57.40625 76.421875 L 71.265625 94.714844 Z M 92.648438 70.066406 " fill-opacity="1" fill-rule="nonzero"/></g></g></g></g><g clip-path="url(#id91)"><g clip-path="url(#id92)"><g clip-path="url(#id93)"><g clip-path="url(#id94)"><path fill="rgb(99.21875%, 40.779114%, 48.629761%)" d="M 182.96875 69.976562 L 135.820312 96.960938 L 191.933594 114.585938 Z M 182.96875 69.976562 " fill-opacity="1" fill-rule="nonzero"/></g></g></g></g><g clip-path="url(#id95)"><g clip-path="url(#id96)"><g clip-path="url(#id97)"><g clip-path="url(#id98)"><path fill="rgb(99.21875%, 64.709473%, 74.508667%)" d="M 175.410156 62.5625 L 225.753906 73.007812 L 182.96875 69.976562 Z M 175.410156 62.5625 " fill-opacity="1" fill-rule="nonzero"/></g></g></g></g><g clip-path="url(#id99)"><g clip-path="url(#id100)"><g clip-path="url(#id101)"><g clip-path="url(#id102)"><path fill="rgb(99.21875%, 54.508972%, 58.428955%)" d="M 135.820312 96.960938 L 175.410156 62.5625 L 182.96875 69.976562 Z M 135.820312 96.960938 " fill-opacity="1" fill-rule="nonzero"/></g></g></g></g><g clip-path="url(#id103)"><g clip-path="url(#id104)"><g clip-path="url(#id105)"><g clip-path="url(#id106)"><path fill="rgb(99.21875%, 18.818665%, 27.059937%)" d="M 92.648438 70.066406 L 135.820312 96.960938 L 71.265625 94.714844 Z M 92.648438 70.066406 " fill-opacity="1" fill-rule="nonzero"/></g></g></g></g><g clip-path="url(#id107)"><g clip-path="url(#id108)"><g clip-path="url(#id109)"><g clip-path="url(#id110)"><path fill="rgb(99.21875%, 64.709473%, 74.508667%)" d="M 135.402344 92.324219 L 175.410156 62.5625 L 135.820312 96.960938 Z M 135.402344 92.324219 " fill-opacity="1" fill-rule="nonzero"/></g></g></g></g><g clip-path="url(#id111)"><g clip-path="url(#id112)"><g clip-path="url(#id113)"><g clip-path="url(#id114)"><path fill="rgb(99.21875%, 64.709473%, 74.508667%)" d="M 92.648438 70.066406 L 135.402344 92.324219 L 135.820312 96.960938 Z M 92.648438 70.066406 " fill-opacity="1" fill-rule="nonzero"/></g></g></g></g></svg>