<?xml version="1.0" encoding="UTF-8"?><svg xmlns="http://www.w3.org/2000/svg" xmlns:xlink="http://www.w3.org/1999/xlink" viewBox="0 0 320 311.58"><defs><style>.l{fill:url(#e);}.m{fill:url(#g);}.n{fill:url(#f);}.o{fill:url(#i);}.p{fill:url(#h);}.q{fill:url(#k);}.r{fill:url(#j);}.s{fill:#f44336;}.t{fill:#fbb381;}.u{fill:#ffab00;}.v{fill:#424242;}.w{fill:#616161;}.x{clip-path:url(#d);}</style><clipPath id="d"><path class="w" d="M281.85,49.8c29.71,33.13,35.2,70.75,36.75,82.49,7.72,58.36-16.3,129.91-74.89,162.09-43.43,23.85-88.19,16.38-95.71,15.01-26.19-4.75-45.17-15.99-56.41-22.75-28.92-17.41-45.05-37.78-49.11-43.08-1.3-1.7-2.27-3.03-2.6-3.48-10.76-14.72-41.11-59.92-26.02-90.32,9.8-19.74,28.42-17.19,33.69-36.32,5.46-19.83-14.17-29.86-10.45-51.66,3.81-22.34,28.96-36.05,41.47-42.65,53.53-28.27,148.26-30.69,203.28,30.68ZM9.98,125.03s19.29-1.14,22.76-14.22c2.03-7.64-1.01-16.83-3.89-23.15-2.11-4.64-7.96-6.23-12.09-3.25l-.1,.07C2.42,94.84-3.98,116.85,2.59,123.1c1.06,1.01,3.11,2.23,7.39,1.93Z"/></clipPath><linearGradient id="e" x1="139.88" y1="254.31" x2="228.87" y2="317.55" gradientTransform="translate(265.69 -164.22) rotate(45)" gradientUnits="userSpaceOnUse"><stop offset="0" stop-color="#fbb381"/><stop offset=".27" stop-color="#a95b35"/><stop offset=".89" stop-color="#fbb381"/></linearGradient><linearGradient id="f" x1="138.32" y1="256.99" x2="227.18" y2="320.14" xlink:href="#e"/><linearGradient id="g" x1="132.17" y1="265.91" x2="221" y2="329.04" xlink:href="#e"/><linearGradient id="h" x1="119.99" y1="283.21" x2="208.87" y2="346.38" xlink:href="#e"/><linearGradient id="i" x1="104.77" y1="305.15" x2="193.07" y2="367.9" xlink:href="#e"/><linearGradient id="j" x1="116.46" y1="288.71" x2="204.76" y2="351.46" gradientTransform="translate(471.89 14.82) rotate(90)" xlink:href="#e"/><linearGradient id="k" x1="198.68" y1="191.46" x2="198.68" y2="40.61" gradientTransform="translate(-1.55 16.85)" gradientUnits="userSpaceOnUse"><stop offset="0" stop-color="#ffeb3b"/><stop offset="1" stop-color="#ffc107"/></linearGradient></defs><g id="a"/><g id="b"><g id="c"><g><path class="w" d="M281.85,49.8c29.71,33.13,35.2,70.75,36.75,82.49,7.72,58.36-16.3,129.91-74.89,162.09-43.43,23.85-88.19,16.38-95.71,15.01-26.19-4.75-45.17-15.99-56.41-22.75-28.92-17.41-45.05-37.78-49.11-43.08-1.3-1.7-2.27-3.03-2.6-3.48-10.76-14.72-41.11-59.92-26.02-90.32,9.8-19.74,28.42-17.19,33.69-36.32,5.46-19.83-14.17-29.86-10.45-51.66,3.81-22.34,28.96-36.05,41.47-42.65,53.53-28.27,148.26-30.69,203.28,30.68ZM9.98,125.03s19.29-1.14,22.76-14.22c2.03-7.64-1.01-16.83-3.89-23.15-2.11-4.64-7.96-6.23-12.09-3.25l-.1,.07C2.42,94.84-3.98,116.85,2.59,123.1c1.06,1.01,3.11,2.23,7.39,1.93Z"/><g class="x"><g><polygon class="t" points="108.32 164.85 -4 277.17 -4 332.61 45.95 332.61 161.02 217.55 108.32 164.85"/><g><g><path class="l" d="M233.77,144.51l2.05,2.05c4.08,4.08,4.08,10.68,0,14.76l-65.64,65.64-16.81-16.81,65.64-65.64c4.08-4.08,10.68-4.08,14.76,0Z"/><path class="n" d="M235.92,106.73l2.05,2.05c4.08,4.08,4.08,10.68,0,14.76l-85.61,85.61-16.81-16.81,85.61-85.61c4.08-4.08,10.68-4.08,14.76,0Z"/><path class="m" d="M224.63,82.37l2.05,2.05c4.08,4.08,4.08,10.68,0,14.76l-92.15,92.15-16.81-16.81,92.15-92.15c4.08-4.08,10.68-4.08,14.76,0Z"/><path class="p" d="M195.43,75.94l2.05,2.05c4.08,4.08,4.08,10.68,0,14.76l-80.76,80.76-16.81-16.81,80.76-80.76c4.08-4.08,10.68-4.08,14.76,0Z"/></g><circle class="o" cx="135.17" cy="191.7" r="49.69"/><rect class="r" x="127.74" y="124.52" width="49.87" height="99.37" transform="translate(-78.46 158.98) rotate(-45)"/></g><g><path class="q" d="M204.69,62.17l17.84,36.14c1.23,2.49,3.61,4.22,6.36,4.62l39.88,5.8c6.92,1.01,9.69,9.51,4.68,14.4l-28.86,28.13c-1.99,1.94-2.9,4.73-2.43,7.47l6.81,39.72c1.18,6.9-6.05,12.15-12.25,8.9l-35.67-18.75c-2.46-1.29-5.4-1.29-7.86,0l-35.67,18.75c-6.19,3.26-13.43-2-12.25-8.9l6.81-39.72c.47-2.74-.44-5.53-2.43-7.47l-28.86-28.13c-5.01-4.88-2.25-13.39,4.68-14.4l39.88-5.8c2.75-.4,5.13-2.13,6.35-4.62l17.84-36.14c3.1-6.27,12.04-6.27,15.14,0Z"/><g><path class="u" d="M151.79,154.64l.31-1.79c.47-2.74-.44-5.53-2.43-7.47l-28.86-28.13c-.95-.92-1.61-1.97-2.03-3.08-1.07,2.93-.56,6.42,2.03,8.95l28.86,28.13c.98,.96,1.7,2.13,2.12,3.39Z"/><path class="u" d="M273.44,117.25l-28.86,28.13c-1.99,1.94-2.9,4.73-2.43,7.47l.31,1.79c.42-1.27,1.14-2.43,2.12-3.39l28.86-28.13c2.59-2.53,3.1-6.02,2.03-8.95-.42,1.11-1.08,2.16-2.03,3.08Z"/><path class="u" d="M248.67,196.68c-1.55,4.63-7.07,7.35-11.95,4.79l-35.67-18.75c-2.46-1.29-5.4-1.29-7.86,0l-35.67,18.75c-4.87,2.56-10.39-.15-11.95-4.79l-.3,1.75c-1.18,6.9,6.05,12.15,12.25,8.9l35.67-18.75c2.46-1.29,5.4-1.29,7.86,0l35.67,18.75c6.19,3.26,13.43-2,12.25-8.9l-.3-1.75Z"/></g><g><g><path class="v" d="M180.32,122.77c0,2.59-2.1,4.68-4.68,4.68s-4.68-2.1-4.68-4.68,2.1-4.68,4.68-4.68,4.68,2.1,4.68,4.68Z"/><path class="v" d="M223.29,122.77c0,2.59-2.1,4.68-4.68,4.68-2.59,0-4.68-2.1-4.68-4.68s2.1-4.68,4.68-4.68,4.68,2.1,4.68,4.68Z"/></g><g><path class="v" d="M217.72,141.58c3.29,0,5.45,3.54,3.83,6.41-3.78,6.69-13.29,11.44-24.43,11.44-11.14,0-20.66-4.75-24.43-11.44-1.62-2.87,.54-6.41,3.83-6.41h41.19Z"/><path class="s" d="M184.18,157.09c3.82,1.49,8.23,2.34,12.95,2.34s9.13-.85,12.95-2.34c-.57-6.65-6.15-11.87-12.95-11.87s-12.37,5.22-12.95,11.87Z"/></g></g></g><g><circle class="t" cx="117.61" cy="174.14" r="24.84"/><path class="t" d="M117.88,174.41l-17.84-17.84,43.29-43.29c1.3-1.3,3.4-1.3,4.7,0l2.75,2.75c7.04,7.04,7.04,18.45,0,25.48l-32.9,32.9Z"/><path class="t" d="M100.04,156.57c-19.4,19.4-19.4,50.86,0,70.27l35.13-35.13-35.13-35.13Z"/></g></g></g></g></g></g></svg>