<?xml version="1.0" encoding="UTF-8"?><svg xmlns="http://www.w3.org/2000/svg" viewBox="0 0 118.98 93.32"><defs><style>.d{fill:#c36464;}.e{fill:#b3cbea;}.f{fill:#cfb74f;}.g,.h{fill:#d4e2f6;}.i{fill:#59a0ba;}.j{fill:#6fadc3;}.j,.k,.l,.h,.m,.n,.o,.p,.q,.r{fill-rule:evenodd;}.k{fill:#dec453;}.l{fill:#dc95ab;}.m{fill:#de6f70;}.n{fill:#becedf;}.o{fill:#98c4d4;}.p{fill:#ead46d;}.q{fill:#fff;}.r{fill:#fbfffc;}</style></defs><g id="a"/><g id="b"><g id="c"><g><path class="o" d="M59.49,0c32.1,0,58.12,26.02,58.12,58.12,0,8.89-2,17.32-5.57,24.86H6.94c-3.57-7.54-5.57-15.96-5.57-24.86C1.37,26.02,27.39,0,59.49,0"/><g><path class="l" d="M30.08,26.14H94.48c1.24,0,2.25,1.01,2.25,2.25v5.41c0,1.24-1.01,2.25-2.25,2.25H30.08c-1.24,0-2.25-1.01-2.25-2.25v-5.41c0-1.24,1.01-2.25,2.25-2.25"/><path class="l" d="M31.4,35.88h61.77v54.36c0,1.61-1.31,2.92-2.92,2.92H34.31c-1.6,0-2.92-1.31-2.92-2.92V35.88Z"/><path class="m" d="M62.28,35.88h30.89v54.36c0,1.6-1.31,2.92-2.92,2.92h-25.05c-1.6,0-2.92-1.31-2.92-2.92V35.88Z"/><path class="m" d="M62.28,26.14h32.2c1.24,0,2.25,1.01,2.25,2.25v5.41c0,1.24-1.01,2.25-2.25,2.25H62.28c-1.24,0-2.25-1.01-2.25-2.25v-5.41c0-1.24,1.01-2.25,2.25-2.25"/><rect class="d" x="31.39" y="36.05" width="61.77" height="3.45"/><rect class="d" x="62.28" y="36.05" width="30.89" height="3.45"/><path class="q" d="M43.76,36.05h6.16v54.19c0,1.61,1.31,2.92,2.92,2.92h-6.16c-1.6,0-2.92-1.31-2.92-2.92V36.05Z"/><rect class="g" x="43.76" y="36.05" width="6.16" height="3.45"/><path class="h" d="M80.81,36.05h-6.16v54.19c0,1.6-1.31,2.92-2.92,2.92h6.16c1.6,0,2.92-1.31,2.92-2.92V36.05Z"/><rect class="e" x="74.64" y="36.05" width="6.16" height="3.45"/><path class="q" d="M43.76,26.14h6.16c-1.24,0-2.25,1.01-2.25,2.25v5.41c0,1.24,1.01,2.25,2.25,2.25h-6.16c-1.24,0-2.25-1.01-2.25-2.25v-5.41c0-1.24,1.01-2.25,2.25-2.25"/><path class="h" d="M80.81,26.14h-6.16c1.24,0,2.25,1.01,2.25,2.25v5.41c0,1.24-1.01,2.25-2.25,2.25h6.16c1.24,0,2.25-1.01,2.25-2.25v-5.41c0-1.24-1.01-2.25-2.25-2.25"/><path class="q" d="M61.87,26.14h-8.95c-2.86-1.64-4.24-3.8-4.14-6.33,.24-5.96,9.78-8.35,13.08,3.71v2.62Z"/><path class="n" d="M60.74,26.14c-3.77-2.4-6.56-4.68-6.77-6.72-.22-2.1,1.37-3.19,3.46-1.62,2.56,1.92,3.6,5.65,4.45,8.34h-1.14Z"/><path class="q" d="M62.69,26.14h8.95c2.86-1.64,4.24-3.8,4.14-6.33-.24-5.96-9.78-8.35-13.08,3.71v2.62Z"/><path class="n" d="M63.82,26.14c3.77-2.4,6.56-4.68,6.77-6.72,.22-2.1-1.37-3.19-3.46-1.62-2.56,1.92-3.6,5.65-4.45,8.34h1.14Z"/><path class="q" d="M58.96,26.14h6.65v-2.31c0-.87-.71-1.58-1.58-1.58h-3.49c-.87,0-1.58,.71-1.58,1.58v2.31Z"/><path class="o" d="M1.94,66.9H57.56c1.07,0,1.94,.87,1.94,1.94v4.67c0,1.07-.87,1.94-1.94,1.94H1.94c-1.07,0-1.94-.87-1.94-1.94v-4.67c0-1.07,.87-1.94,1.94-1.94"/><path class="o" d="M3.08,75.32H56.42v15.32c0,1.39-1.13,2.52-2.52,2.52H5.6c-1.39,0-2.52-1.13-2.52-2.52v-15.32Z"/><path class="j" d="M29.75,75.32h26.67v15.32c0,1.39-1.13,2.52-2.52,2.52h-21.63c-1.39,0-2.52-1.13-2.52-2.52v-15.32Z"/><path class="j" d="M29.75,66.9h27.81c1.07,0,1.94,.87,1.94,1.94v4.67c0,1.07-.87,1.94-1.94,1.94H29.75c-1.07,0-1.94-.87-1.94-1.94v-4.67c0-1.07,.87-1.94,1.94-1.94"/><rect class="i" x="3.08" y="75.46" width="53.35" height="2.98"/><rect class="i" x="29.75" y="75.46" width="26.67" height="2.98"/><path class="q" d="M13.75,75.46h5.32v15.18c0,1.39,1.13,2.52,2.52,2.52h-5.32c-1.39,0-2.52-1.13-2.52-2.52v-15.18Z"/><rect class="g" x="13.75" y="75.46" width="5.32" height="2.98"/><path class="h" d="M45.75,75.46h-5.32v15.18c0,1.39-1.13,2.52-2.52,2.52h5.32c1.39,0,2.52-1.13,2.52-2.52v-15.18Z"/><rect class="e" x="40.42" y="75.46" width="5.32" height="2.98"/><path class="q" d="M13.75,66.9h5.32c-1.07,0-1.94,.87-1.94,1.94v4.67c0,1.07,.87,1.94,1.94,1.94h-5.32c-1.07,0-1.94-.87-1.94-1.94v-4.67c0-1.07,.87-1.94,1.94-1.94"/><path class="h" d="M45.75,66.9h-5.32c1.07,0,1.94,.87,1.94,1.94v4.67c0,1.07-.87,1.94-1.94,1.94h5.32c1.07,0,1.94-.87,1.94-1.94v-4.67c0-1.07-.87-1.94-1.94-1.94"/><path class="q" d="M29.4,66.9h-7.73c-2.47-1.41-3.66-3.28-3.57-5.47,.2-5.15,8.44-7.21,11.3,3.21v2.26Z"/><path class="n" d="M28.42,66.9c-3.25-2.07-5.67-4.04-5.85-5.8-.19-1.82,1.18-2.76,2.99-1.4,2.21,1.66,3.1,4.88,3.84,7.2h-.98Z"/><path class="q" d="M30.1,66.9h7.73c2.47-1.41,3.66-3.28,3.57-5.47-.2-5.15-8.44-7.21-11.3,3.21v2.26Z"/><path class="n" d="M31.08,66.9c3.25-2.07,5.67-4.04,5.85-5.8,.19-1.82-1.18-2.76-2.99-1.4-2.21,1.66-3.1,4.88-3.84,7.2h.98Z"/><path class="q" d="M26.88,66.9h5.74v-1.99c0-.75-.61-1.36-1.36-1.36h-3.01c-.75,0-1.36,.61-1.36,1.36v1.99Z"/><path class="p" d="M68.52,56.75h48.76c.94,0,1.7,.77,1.7,1.7v4.1c0,.94-.77,1.7-1.7,1.7h-48.76c-.94,0-1.7-.77-1.7-1.7v-4.1c0-.94,.77-1.7,1.7-1.7"/><path class="p" d="M69.51,64.12h46.77v26.86c0,1.22-.99,2.21-2.21,2.21h-42.35c-1.22,0-2.21-.99-2.21-2.21v-26.86Z"/><path class="k" d="M92.9,64.12h23.38v26.86c0,1.22-.99,2.21-2.21,2.21h-18.96c-1.22,0-2.21-.99-2.21-2.21v-26.86Z"/><path class="k" d="M92.9,56.75h24.38c.94,0,1.7,.77,1.7,1.7v4.1c0,.94-.77,1.7-1.7,1.7h-24.38c-.94,0-1.7-.77-1.7-1.7v-4.1c0-.94,.77-1.7,1.7-1.7"/><rect class="f" x="69.51" y="64.25" width="46.77" height="2.61"/><rect class="f" x="92.9" y="64.25" width="23.38" height="2.61"/><path class="q" d="M78.87,64.25h4.67v26.86c0,1.22,.99,2.21,2.21,2.21h-4.67c-1.22,0-2.21-.99-2.21-2.21v-26.86Z"/><rect class="g" x="78.87" y="64.25" width="4.67" height="2.61"/><path class="h" d="M106.92,64.25h-4.67v26.86c0,1.22-.99,2.21-2.21,2.21h4.67c1.21,0,2.21-.99,2.21-2.21v-26.86Z"/><rect class="e" x="102.26" y="64.25" width="4.67" height="2.61"/><path class="q" d="M78.87,56.75h4.67c-.94,0-1.7,.77-1.7,1.7v4.1c0,.94,.77,1.7,1.7,1.7h-4.67c-.94,0-1.7-.77-1.7-1.7v-4.1c0-.94,.77-1.7,1.7-1.7"/><path class="h" d="M106.92,56.75h-4.67c.94,0,1.7,.77,1.7,1.7v4.1c0,.94-.77,1.7-1.7,1.7h4.67c.94,0,1.7-.77,1.7-1.7v-4.1c0-.94-.77-1.7-1.7-1.7"/><path class="q" d="M92.47,56.75h-9.34c-2.99-1.71-4.42-3.96-4.32-6.61,.25-6.22,10.2-8.71,13.65,3.87v2.73Z"/><path class="n" d="M91.29,56.75c-3.93-2.5-6.85-4.88-7.06-7.01-.23-2.2,1.43-3.33,3.61-1.69,2.67,2,3.75,5.9,4.64,8.7h-1.19Z"/><path class="q" d="M93.32,56.75h9.34c2.99-1.71,4.42-3.96,4.32-6.61-.25-6.22-10.2-8.71-13.65,3.87v2.73Z"/><path class="n" d="M94.51,56.75c3.93-2.5,6.85-4.88,7.06-7.01,.23-2.2-1.43-3.33-3.61-1.69-2.67,2-3.75,5.9-4.64,8.7h1.19Z"/><path class="q" d="M89.43,56.75h6.94v-2.41c0-.91-.74-1.65-1.65-1.65h-3.64c-.91,0-1.65,.74-1.65,1.65v2.41Z"/><path class="q" d="M32.25,17.8c0,.35-.28,.63-.63,.63s-.63-.28-.63-.63v-4.86c0-.35,.28-.63,.63-.63s.63,.28,.63,.63v4.86Z"/><path class="q" d="M34.05,14.74c.35,0,.63,.28,.63,.63s-.28,.63-.63,.63h-4.86c-.35,0-.63-.28-.63-.63s.28-.63,.63-.63h4.86Z"/><path class="r" d="M13.81,41.55l.05,.11h0c.3,.83,.26,1.69-.06,2.44-.33,.79-.96,1.45-1.82,1.8l-.11,.05h0c-.82,.3-1.68,.26-2.43-.06-.79-.33-1.45-.96-1.8-1.82l-.05-.11h0c-.3-.83-.26-1.69,.06-2.44,.33-.79,.96-1.45,1.82-1.8l.11-.05h0c.82-.3,1.68-.26,2.43,.06,.79,.33,1.45,.96,1.8,1.82m-1.11,.43c-.22-.54-.65-.93-1.15-1.15-.51-.21-1.1-.23-1.64-.01h-.02c-.54,.23-.93,.66-1.15,1.16-.21,.51-.23,1.1-.01,1.64v.02c.23,.54,.65,.94,1.16,1.15,.51,.21,1.1,.23,1.64,.01h.02c.54-.23,.94-.65,1.15-1.16,.21-.51,.23-1.1,.01-1.64v-.02Z"/><path class="q" d="M12.85,23.44c.48,0,.88-.39,.88-.88s-.39-.88-.88-.88-.88,.39-.88,.88,.39,.88,.88,.88"/><path class="q" d="M60.44,8.15c.48,0,.88-.39,.88-.88s-.39-.88-.88-.88-.88,.39-.88,.88,.39,.88,.88,.88"/><path class="q" d="M116.11,46.75c0,.35-.28,.63-.63,.63s-.63-.28-.63-.63v-4.86c0-.35,.28-.63,.63-.63s.63,.28,.63,.63v4.86Z"/><path class="q" d="M117.91,43.68c.35,0,.63,.28,.63,.63s-.28,.63-.63,.63h-4.86c-.35,0-.63-.28-.63-.63s.28-.63,.63-.63h4.86Z"/><path class="r" d="M98.33,11.05l.05,.11h0c.3,.83,.26,1.69-.06,2.44-.33,.79-.96,1.45-1.82,1.8l-.11,.05h0c-.82,.3-1.68,.26-2.43-.06-.79-.33-1.45-.96-1.8-1.82l-.05-.11h0c-.3-.83-.26-1.69,.06-2.44,.33-.79,.96-1.45,1.82-1.8l.11-.05h0c.82-.3,1.68-.26,2.43,.06,.79,.33,1.45,.96,1.8,1.82m-1.11,.43c-.22-.54-.65-.94-1.15-1.15-.51-.21-1.1-.23-1.64-.01h-.02c-.54,.23-.93,.65-1.15,1.16-.21,.51-.23,1.1-.01,1.64v.02c.23,.54,.65,.94,1.16,1.15,.51,.21,1.1,.23,1.64,.01h.02c.54-.23,.94-.65,1.15-1.16,.21-.51,.23-1.1,.01-1.64v-.02Z"/><path class="q" d="M103.81,33.06c.48,0,.88-.39,.88-.88s-.39-.88-.88-.88-.88,.39-.88,.88,.39,.88,.88,.88"/></g></g></g></g></svg>