<?xml version="1.0" encoding="utf-8"?>
<!-- Generator: Adobe Illustrator 26.2.1, SVG Export Plug-In . SVG Version: 6.00 Build 0)  -->
<svg version="1.1" id="레이어_1" xmlns="http://www.w3.org/2000/svg" xmlns:xlink="http://www.w3.org/1999/xlink" x="0px"
	 y="0px" viewBox="0 0 22.4 22.4" style="enable-background:new 0 0 22.4 22.4;" xml:space="preserve">
<style type="text/css">
	.st0{clip-path:url(#SVGID_00000041275650720987077850000007328527358009441469_);}
	.st1{fill:#666666;stroke:#666666;stroke-width:0.3;}
</style>
<g id="ico-goto2" transform="translate(0 0)">
	<g>
		<defs>
			<rect id="SVGID_1_" width="22.4" height="22.4"/>
		</defs>
		<clipPath id="SVGID_00000042738563717503444910000004660530503616709505_">
			<use xlink:href="#SVGID_1_"  style="overflow:visible;"/>
		</clipPath>
		<g id="그룹_826" style="clip-path:url(#SVGID_00000042738563717503444910000004660530503616709505_);">
			<path id="패스_5603" class="st1" d="M21.9,0.5C21.6,0.1,21.2,0,20.7,0c-0.6,0.1-1.1,0.4-1.3,0.9c-0.6,0.9-1.1,0.7-1.5,0.6
				l-0.1,0c-0.6-0.1-1.2,0.1-1.6,0.5l-0.5-0.5c-0.1-0.1-0.3-0.1-0.5,0l-1.4,1.4c-0.8-0.8-2.1-0.8-2.9,0L0.4,13.5
				c-0.5,0.5-0.5,1.4,0,1.9L6.9,22c0.5,0.5,1.4,0.5,1.9,0c0,0,0,0,0,0l10.6-10.6c0.8-0.8,0.8-2.1,0-2.9l1.4-1.4
				c0.1-0.1,0.1-0.3,0-0.5l-0.5-0.5c0.5-0.4,0.7-1,0.5-1.6l0-0.1c-0.1-0.4-0.3-0.9,0.6-1.5c0.5-0.3,0.8-0.8,0.9-1.3
				C22.4,1.2,22.3,0.8,21.9,0.5 M19,10.9L8.4,21.5c-0.3,0.3-0.7,0.3-1,0L0.9,15c-0.3-0.3-0.3-0.7,0-1L11.5,3.4
				c0.5-0.5,1.4-0.5,1.9,0l0.2,0.2l5.1,5.1L19,9C19.5,9.5,19.5,10.4,19,10.9C19,10.9,19,10.9,19,10.9 M19,8l-4.7-4.7l1.2-1.2
				l4.7,4.7L19,8z M21.1,2.5c-0.8,0.4-1.2,1.4-0.8,2.3c0,0,0,0,0,0l0,0.1c0,0.3-0.1,0.6-0.4,0.8l-3.2-3.2c0.2-0.3,0.5-0.4,0.8-0.3
				l0.1,0c0.8,0.4,1.9,0.1,2.3-0.8c0,0,0,0,0,0c0.2-0.3,0.5-0.6,0.9-0.6c0.5,0,0.9,0.4,0.9,0.9c0,0,0,0,0,0
				C21.6,2,21.4,2.3,21.1,2.5"/>
			<path id="패스_5604" class="st1" d="M12.7,5.5c-0.1-0.1-0.3-0.1-0.5,0c0,0,0,0,0,0l-7.1,7.1l0,0l-1.8,1.8
				c-0.1,0.1-0.1,0.3,0,0.5l1.8,1.8c0.1,0.1,0.3,0.1,0.5,0c0.1-0.1,0.1-0.3,0-0.5L4,14.6l1.3-1.3l1.6,1.6C7,15,7.2,15,7.4,14.9
				c0.1-0.1,0.1-0.3,0-0.5l0,0l-1.6-1.6l1.3-1.3l1.6,1.6c0.1,0.1,0.3,0.1,0.5,0c0.1-0.1,0.1-0.3,0-0.5L7.6,11l1.3-1.3l1.6,1.6
				c0.1,0.1,0.1,0.1,0.2,0.1c0.2,0,0.3-0.2,0.3-0.3c0-0.1,0-0.2-0.1-0.2L9.4,9.3L10.7,8l1.6,1.6c0.1,0.1,0.3,0.1,0.5,0
				c0.1-0.1,0.1-0.3,0-0.5l-1.6-1.6l1.3-1.3L14,7.8c0.1,0.1,0.1,0.1,0.2,0.1c0.2,0,0.3-0.2,0.3-0.3c0-0.1,0-0.2-0.1-0.2L12.7,5.5z"
				/>
		</g>
	</g>
</g>
</svg>
