<?xml version="1.0" encoding="utf-8"?>
<!-- Generator: Adobe Illustrator 26.2.1, SVG Export Plug-In . SVG Version: 6.00 Build 0)  -->
<svg version="1.1" id="ico-goto4" xmlns="http://www.w3.org/2000/svg" xmlns:xlink="http://www.w3.org/1999/xlink" x="0px" y="0px"
	 viewBox="0 0 22.4 21.2" style="enable-background:new 0 0 22.4 21.2;" xml:space="preserve">
<style type="text/css">
	.st0{clip-path:url(#SVGID_00000027602598141168363540000003718147411305953671_);}
	.st1{fill:#666666;stroke:#666666;stroke-width:0.3;}
</style>
<g>
	<defs>
		<rect id="SVGID_1_" width="22.4" height="21.2"/>
	</defs>
	<clipPath id="SVGID_00000129922967966058251620000003603488857824954040_">
		<use xlink:href="#SVGID_1_"  style="overflow:visible;"/>
	</clipPath>
	<g id="그룹_828" style="clip-path:url(#SVGID_00000129922967966058251620000003603488857824954040_);">
		<path id="패스_5605" class="st1" d="M22.3,16.4l-1.5-2c0,0,0,0,0,0c-0.6-4.2-3.9-7.6-8.1-8.1c0.5-0.7,0.4-1.6-0.3-2.1
			C12.2,4.1,12,4,11.8,3.9V0.3c0-0.2-0.1-0.3-0.3-0.4c-0.2,0-0.3,0.1-0.4,0.3c0,0,0,0,0,0v3.6C10.5,4.1,10,4.7,10,5.4
			c0,0.3,0.1,0.6,0.3,0.9c-4.7,0.6-8.2,4.6-8.2,9.3c0,0,0,0,0,0c-0.2,0.1-0.3,0.2-0.4,0.3c-0.2,0.2-0.2,0.5-0.2,0.8
			c-0.2-0.1-0.5-0.2-0.7-0.1c-0.3,0.1-0.5,0.3-0.6,0.5C0,17.5,0,17.8,0.1,18.1c0.1,0.2,0.3,0.4,0.6,0.5c-0.2,0.1-0.4,0.4-0.5,0.6
			c-0.1,0.3,0,0.5,0.2,0.7c0.2,0.3,0.4,0.4,0.7,0.5c0.3,0,0.5-0.1,0.7-0.2c0,0.3,0.1,0.5,0.3,0.7c0.2,0.2,0.4,0.2,0.6,0.2
			c0,0,0.1,0,0.1,0c0.3,0,0.6-0.1,0.8-0.4c0.2-0.2,0.2-0.5,0.2-0.8c0.2,0.1,0.5,0.2,0.7,0.1C4.7,20,4.9,19.8,5,19.6
			c0.2-0.3,0.2-0.6,0.1-0.9c-0.1-0.3-0.3-0.4-0.6-0.5C4.7,18,4.9,17.8,5,17.5c0.1-0.3,0-0.5-0.2-0.7c-0.2-0.3-0.4-0.4-0.7-0.5
			c-0.3,0-0.5,0.1-0.8,0.2c0-0.3-0.1-0.5-0.3-0.7c-0.1-0.1-0.2-0.2-0.4-0.2c0-4.2,3-7.8,7.2-8.6C8.9,8.3,8.1,10.9,7.8,14
			c-1,0.2-1.6,1.1-1.4,2c0.1,0.7,0.7,1.3,1.4,1.4v1.4c-0.6,0.2-1,0.8-0.8,1.5c0.2,0.6,0.8,1,1.5,0.8c0.6-0.2,1-0.8,0.8-1.5
			c-0.1-0.4-0.4-0.7-0.8-0.8v-1.4c0.9-0.2,1.6-1.1,1.4-2.1c-0.1-0.7-0.7-1.2-1.4-1.4c0.3-4.3,1.7-7.1,3-7.1c1.4,0,2.9,3.3,3,8.3
			l-0.6,1.3l-1.5,0.2c-0.2,0-0.3,0.2-0.3,0.4c0,0.1,0,0.1,0.1,0.2l1.1,1L13,19.8c0,0.2,0.1,0.4,0.3,0.4c0.1,0,0.1,0,0.2,0l1.3-0.7
			l1.3,0.7c0,0,0.1,0,0.2,0c0.1,0,0.1,0,0.2-0.1c0.1-0.1,0.2-0.2,0.1-0.3l-0.3-1.5l1.1-1c0.1-0.1,0.1-0.3,0-0.5
			c-0.1-0.1-0.1-0.1-0.2-0.1l-1.5-0.2l-0.6-1.3C15.1,11.5,14.3,8.5,13,7c3.8,0.7,6.7,3.8,7.1,7.6l-1.4,1.8c-0.1,0.1-0.1,0.3,0,0.4
			l1.5,2c0.1,0.1,0.3,0.2,0.5,0.1c0,0,0,0,0.1-0.1l1.5-2C22.4,16.7,22.4,16.6,22.3,16.4 M3,17.3c0.2,0.1,0.5,0.1,0.6-0.1
			C3.8,17.1,3.9,17,4.1,17c0.1,0,0.2,0.1,0.2,0.2c0.1,0.1,0.1,0.2,0.1,0.2c0,0-0.1,0.2-0.4,0.4c-0.3,0.1-0.4,0.5-0.3,0.7
			c0.1,0.1,0.2,0.2,0.3,0.3c0.2,0,0.3,0.1,0.4,0.3c0,0.1,0,0.2-0.1,0.3c0,0.1-0.1,0.1-0.1,0.1c-0.2,0-0.3-0.1-0.4-0.1
			c-0.2-0.1-0.4-0.1-0.6,0C3,19.4,2.9,19.7,3,19.9c0.1,0.2,0.1,0.4,0,0.5c-0.1,0.1-0.2,0.1-0.3,0.1c-0.1,0-0.1,0-0.2,0
			c-0.1-0.1-0.1-0.3-0.1-0.5c0-0.2-0.1-0.4-0.3-0.5c-0.2-0.1-0.5-0.1-0.6,0.1c-0.1,0.1-0.2,0.2-0.4,0.2c-0.1,0-0.2-0.1-0.2-0.2
			c0-0.1-0.1-0.1-0.1-0.2c0,0,0.1-0.2,0.4-0.3c0.3-0.1,0.4-0.5,0.3-0.7c-0.1-0.1-0.2-0.2-0.3-0.3c-0.2,0-0.3-0.1-0.4-0.2
			c0-0.1,0-0.2,0.1-0.3c0-0.1,0.1-0.1,0.1-0.1c0.2,0,0.3,0.1,0.4,0.1c0.2,0.1,0.4,0.1,0.6,0c0.2-0.1,0.3-0.4,0.2-0.6
			c-0.1-0.2-0.1-0.4,0-0.5c0.1-0.1,0.2-0.1,0.3-0.1c0.1,0,0.1,0,0.2,0c0.1,0.1,0.1,0.3,0.1,0.5C2.7,17,2.8,17.2,3,17.3 M8.7,20
			c0,0.3-0.2,0.5-0.5,0.5c-0.3,0-0.5-0.2-0.5-0.5s0.2-0.5,0.5-0.5C8.4,19.5,8.7,19.7,8.7,20 M9.2,15.7c0,0.6-0.5,1.1-1.1,1.1
			c-0.6,0-1.1-0.5-1.1-1.1c0-0.6,0.5-1.1,1.1-1.1C8.8,14.6,9.2,15.1,9.2,15.7 M11.5,6.2c-0.5,0-0.8-0.4-0.8-0.8s0.4-0.8,0.8-0.8
			c0.5,0,0.8,0.4,0.8,0.8C12.3,5.9,11.9,6.2,11.5,6.2 M15.5,17.1l1,0.1L15.8,18c-0.1,0.1-0.1,0.2-0.1,0.3l0.2,1L15,18.8
			c-0.1-0.1-0.2-0.1-0.3,0l-0.9,0.5l0.2-1c0-0.1,0-0.2-0.1-0.3l-0.7-0.7l1-0.1c0.1,0,0.2-0.1,0.3-0.2l0.4-0.9l0.4,0.9
			C15.3,17.1,15.4,17.1,15.5,17.1 M20.5,18.1l-1.1-1.5l1.1-1.4l1.1,1.5L20.5,18.1z"/>
	</g>
</g>
</svg>
