<?xml version="1.0" encoding="utf-8"?>
<!-- Generator: Adobe Illustrator 26.2.1, SVG Export Plug-In . SVG Version: 6.00 Build 0)  -->
<svg version="1.1" id="레이어_1" xmlns="http://www.w3.org/2000/svg" xmlns:xlink="http://www.w3.org/1999/xlink" x="0px"
	 y="0px" viewBox="0 0 22.4 22.4" style="enable-background:new 0 0 22.4 22.4;" xml:space="preserve">
<style type="text/css">
	.st0{clip-path:url(#SVGID_00000148638758242607190670000007194692968770557852_);}
	.st1{fill:#666666;stroke:#666666;stroke-width:0.3;}
</style>
<g id="ico-goto3" transform="translate(0 0)">
	<g>
		<defs>
			<rect id="SVGID_1_" width="22.4" height="22.4"/>
		</defs>
		<clipPath id="SVGID_00000118364350311933410500000002650549044805243818_">
			<use xlink:href="#SVGID_1_"  style="overflow:visible;"/>
		</clipPath>
		<g id="그룹_830" style="clip-path:url(#SVGID_00000118364350311933410500000002650549044805243818_);">
			<path id="패스_5606" class="st1" d="M22.4,9.5L22.4,9.5c0-0.1-0.1-0.1-0.1-0.1l0,0l-3.6-3.1v-3c0-0.2-0.2-0.3-0.3-0.3h-3.6
				l-3.3-2.8C11.3,0,11.1,0,11,0.1L7.7,2.9H4.1c-0.2,0-0.3,0.2-0.3,0.3v3L0.1,9.4l0,0c0,0,0,0,0,0s0,0,0,0l0,0c0,0,0,0,0,0.1l0,0
				l0,0l0,0c0,0,0,0.1,0,0.1v12.4c0,0.2,0.2,0.3,0.3,0.3h21.7c0.2,0,0.3-0.2,0.3-0.3c0,0,0,0,0,0V9.6C22.4,9.6,22.4,9.5,22.4,9.5
				 M21.5,9.6l-2.9,2.5V7.2L21.5,9.6z M11.2,0.8l2.5,2.1h-5L11.2,0.8z M18,3.6v9.1l-6.8,5.8l-6.8-5.8V3.6H18z M3.7,12.1L0.9,9.6
				l2.9-2.5V12.1z M0.7,10.4L11,19.2l0,0l3,2.6H0.7V10.4z M21.7,21.7H15l-3.3-2.8l10-8.5L21.7,21.7z"/>
			<path id="패스_5607" class="st1" d="M7.8,13h6.8c0.2,0,0.3-0.1,0.4-0.3c0-0.2-0.1-0.3-0.3-0.4c0,0,0,0,0,0H7.8
				c-0.2,0-0.3,0.2-0.3,0.4C7.5,12.9,7.6,13,7.8,13"/>
			<path id="패스_5608" class="st1" d="M13.2,14.4H9.2c-0.2,0-0.3,0.2-0.3,0.4c0,0.2,0.1,0.3,0.3,0.3h4.1c0.2,0,0.3-0.1,0.4-0.3
				C13.6,14.6,13.5,14.4,13.2,14.4C13.3,14.4,13.2,14.4,13.2,14.4"/>
			<path id="패스_5609" class="st1" d="M9.5,8.9l-0.3,1.7c0,0.2,0.1,0.4,0.3,0.4c0.1,0,0.1,0,0.2,0l1.5-0.8l1.5,0.8
				c0.2,0.1,0.4,0,0.5-0.1c0-0.1,0-0.1,0-0.2l-0.3-1.7l1.2-1.2c0.1-0.1,0.1-0.2,0.1-0.3c0-0.1-0.1-0.2-0.3-0.2l-1.7-0.2l-0.8-1.6
				c-0.1-0.2-0.3-0.2-0.5-0.1c-0.1,0-0.1,0.1-0.1,0.1l-0.8,1.6L8.4,7.1c-0.2,0-0.3,0.2-0.3,0.4c0,0.1,0,0.1,0.1,0.2L9.5,8.9z
				 M10.4,7.5c0.1,0,0.2-0.1,0.3-0.2l0.5-1.1l0.5,1.1c0,0.1,0.1,0.2,0.3,0.2l1.2,0.2l-0.9,0.9c-0.1,0.1-0.1,0.2-0.1,0.3l0.2,1.2
				l-1.1-0.6c-0.1-0.1-0.2-0.1-0.3,0L10,10l0.2-1.2c0-0.1,0-0.2-0.1-0.3L9.2,7.7L10.4,7.5z"/>
		</g>
	</g>
</g>
</svg>
