<?xml version="1.0" encoding="utf-8"?>
<!-- Generator: Adobe Illustrator 26.2.1, SVG Export Plug-In . SVG Version: 6.00 Build 0)  -->
<svg version="1.1" id="레이어_1" xmlns="http://www.w3.org/2000/svg" xmlns:xlink="http://www.w3.org/1999/xlink" x="0px"
	 y="0px" viewBox="0 0 22.4 20.1" style="enable-background:new 0 0 22.4 20.1;" xml:space="preserve">
<style type="text/css">
	.st0{clip-path:url(#SVGID_00000142178225317614810750000007324334490828342952_);}
	.st1{fill:#666666;stroke:#666666;stroke-width:0.3;}
</style>
<g id="ico-goto5" transform="translate(0 0)">
	<g>
		<defs>
			<rect id="SVGID_1_" width="22.4" height="20.1"/>
		</defs>
		<clipPath id="SVGID_00000165932179100855571530000001015205107176629401_">
			<use xlink:href="#SVGID_1_"  style="overflow:visible;"/>
		</clipPath>
		<g id="그룹_832" style="clip-path:url(#SVGID_00000165932179100855571530000001015205107176629401_);">
			<path id="패스_5610" class="st1" d="M22,14.4c-0.3-0.2-0.6-0.3-0.9-0.1c0-0.1,0-0.2,0-0.2c0-0.3-0.2-0.7-0.5-0.8
				c-0.5-0.4-1.2-0.1-2.3,0.4c-0.9,0.4-1.8,0.7-2.7,1c-0.1-0.1-0.1-0.2-0.2-0.3c-0.3-0.3-0.7-0.5-1.2-0.4c-3.1,0.1-3.7-0.3-4.3-0.6
				c-0.8-0.5-1.6-1-6.8-1H0.3c-0.2,0-0.3,0.2-0.3,0.3v6.1c0,0.2,0.2,0.3,0.3,0.3c0,0,0,0,0,0h2.8c2.3,0.7,4.7,1,7.1,1
				c4.1,0.1,8.1-1.2,11.4-3.7c0.4-0.3,0.7-0.7,0.8-1.2C22.4,14.9,22.3,14.6,22,14.4 M18.6,14.2c0.6-0.3,1.5-0.6,1.6-0.5
				c0.2,0.1,0.2,0.2,0.2,0.3c-0.1,0.2-0.2,0.5-0.4,0.6l-0.2,0.1c-1.3,0.6-2.6,1-4,1.4c0-0.1,0.1-0.2,0.1-0.3c0-0.2,0-0.3,0-0.5
				C16.7,15,17.7,14.6,18.6,14.2 M0.7,13h2.2v5.4H0.7V13z M21.2,15.9C14.2,21.4,5.1,19,3.5,18.5V13c4.6,0,5.4,0.5,6.1,0.9
				c0.7,0.4,1.3,0.8,4.6,0.7c0.2,0,0.5,0.1,0.6,0.2c0.2,0.3,0.3,0.6,0.2,0.9c0,0.1,0,0.4-0.6,0.6l0,0h0c-0.6,0.2-2,0.5-5.1,0.1
				c-0.2,0-0.4,0.1-0.4,0.3c0,0.2,0.1,0.3,0.3,0.4c1,0.1,2,0.2,3,0.2c0.8,0,1.6-0.1,2.4-0.3c1.8-0.4,3.6-0.9,5.3-1.7
				c0.7-0.3,1.4-0.6,1.5-0.5c0.2,0.1,0.2,0.2,0.2,0.3C21.7,15.5,21.3,15.8,21.2,15.9"/>
			<path id="패스_5611" class="st1" d="M11.5,10.9c0.1,0,0.1,0,0.2,0.1c0.1,0,0.1,0,0.2-0.1c0.2-0.1,5.9-3.7,5.9-7.5
				c0-1.9-1.5-3.4-3.4-3.4c-1,0-2,0.5-2.7,1.3c-1.2-1.5-3.4-1.7-4.8-0.5C6.1,1.4,5.6,2.4,5.6,3.4C5.6,7.3,11.3,10.8,11.5,10.9
				 M9,0.7c1,0,1.9,0.5,2.4,1.4c0.1,0.2,0.3,0.2,0.5,0.1c0,0,0.1-0.1,0.1-0.1c0.8-1.3,2.5-1.8,3.8-1c0.8,0.5,1.4,1.4,1.4,2.4
				c0,3.1-4.5,6.2-5.4,6.8c-1-0.6-5.4-3.7-5.4-6.8C6.3,1.9,7.5,0.7,9,0.7"/>
		</g>
	</g>
</g>
</svg>
