<?xml version="1.0" encoding="utf-8"?>
<!-- Generator: Adobe Illustrator 26.2.1, SVG Export Plug-In . SVG Version: 6.00 Build 0)  -->
<svg version="1.1" id="레이어_1" xmlns="http://www.w3.org/2000/svg" xmlns:xlink="http://www.w3.org/1999/xlink" x="0px"
	 y="0px" viewBox="0 0 22.4 21.8" style="enable-background:new 0 0 22.4 21.8;" xml:space="preserve">
<style type="text/css">
	.st0{clip-path:url(#SVGID_00000171719187109128044110000008322539037166721168_);}
	.st1{fill:#666666;stroke:#666666;stroke-width:0.3;}
</style>
<g id="ico-goto6" transform="translate(0 0)">
	<g>
		<defs>
			<rect id="SVGID_1_" width="22.4" height="21.8"/>
		</defs>
		<clipPath id="SVGID_00000038384323208323444630000006509674561684332674_">
			<use xlink:href="#SVGID_1_"  style="overflow:visible;"/>
		</clipPath>
		<g id="그룹_822" style="clip-path:url(#SVGID_00000038384323208323444630000006509674561684332674_);">
			<path id="패스_5584" class="st1" d="M20,1.3h-0.2c-0.2-0.9-1.1-1.5-2-1.3c-0.6,0.1-1.1,0.6-1.3,1.3H15c-0.2-0.9-1.1-1.5-2-1.3
				c-0.6,0.1-1.1,0.6-1.3,1.3h-1.5c-0.2-0.9-1.1-1.5-2-1.3C7.7,0.2,7.2,0.7,7,1.3H5.9C5.7,0.4,4.8-0.2,3.9,0
				C3.3,0.2,2.8,0.7,2.6,1.3H2.4C1.1,1.3,0,2.4,0,3.7v15.7c0,1.3,1.1,2.4,2.4,2.4H20c1.3,0,2.4-1.1,2.4-2.4V3.7
				C22.4,2.4,21.3,1.3,20,1.3 M18.2,0.7c0.4,0,0.8,0.3,0.9,0.6h-1.8C17.4,0.9,17.7,0.7,18.2,0.7 M13.4,0.7c0.4,0,0.8,0.3,0.9,0.6
				h-1.8C12.6,0.9,13,0.7,13.4,0.7 M8.7,0.7c0.4,0,0.8,0.3,0.9,0.6H7.7C7.9,0.9,8.2,0.7,8.7,0.7 M4.2,0.7c0.4,0,0.8,0.3,0.9,0.6H3.3
				C3.5,0.9,3.8,0.7,4.2,0.7 M2.4,2h0.2c0.2,0.8,0.8,1.3,1.6,1.3c0.2,0,0.3-0.1,0.4-0.3c0-0.2-0.1-0.3-0.3-0.4c0,0,0,0,0,0
				C3.8,2.6,3.5,2.4,3.3,2h2.2l0,0l0,0H7c0.2,0.8,0.8,1.3,1.6,1.3C8.8,3.3,9,3.1,9,3c0-0.2-0.1-0.3-0.3-0.3C8.2,2.6,7.9,2.4,7.7,2
				H10l0,0l0,0h1.8c0.2,0.8,0.8,1.3,1.6,1.3c0.2,0,0.3-0.1,0.4-0.3s-0.1-0.3-0.3-0.4c0,0,0,0,0,0c-0.4,0-0.8-0.3-0.9-0.6h2.2l0,0h0
				h1.8c0.2,0.8,0.8,1.3,1.6,1.3c0.2,0,0.3-0.2,0.3-0.4c0-0.2-0.1-0.3-0.3-0.3c-0.4,0-0.8-0.3-0.9-0.6h2.2l0,0l0,0H20
				c1,0,1.7,0.8,1.7,1.7v0.6h-21V3.7C0.7,2.8,1.5,2,2.4,2 M20,21.1H2.4c-1,0-1.7-0.8-1.7-1.7V5h21v14.4C21.7,20.4,20.9,21.1,20,21.1
				"/>
			<path id="패스_5585" class="st1" d="M5.3,7.8H4.2c-0.7,0-1.4,0.6-1.4,1.4v1.1c0,0.7,0.6,1.4,1.4,1.4h1.1c0.7,0,1.4-0.6,1.4-1.4
				V9.1C6.6,8.4,6,7.8,5.3,7.8 M6,10.2c0,0.4-0.3,0.7-0.7,0.7H4.2c-0.4,0-0.7-0.3-0.7-0.7V9.1c0-0.4,0.3-0.7,0.7-0.7h1.1
				C5.6,8.4,6,8.7,6,9.1V10.2z"/>
			<path id="패스_5586" class="st1" d="M17.1,11.5h1.1c0.7,0,1.4-0.6,1.4-1.4V9.1c0-0.7-0.6-1.4-1.4-1.4h-1.1
				c-0.7,0-1.4,0.6-1.4,1.4v1.1C15.8,10.9,16.4,11.5,17.1,11.5 M16.4,9.1c0-0.4,0.3-0.7,0.7-0.7h1.1c0.4,0,0.7,0.3,0.7,0.7v1.1
				c0,0.4-0.3,0.7-0.7,0.7h-1.1c-0.4,0-0.7-0.3-0.7-0.7V9.1z"/>
			<path id="패스_5587" class="st1" d="M11.7,7.8h-1.1c-0.7,0-1.4,0.6-1.4,1.4v1.1c0,0.7,0.6,1.4,1.4,1.4h1.1
				c0.7,0,1.4-0.6,1.4-1.4V9.1C13.1,8.4,12.5,7.8,11.7,7.8 M12.4,10.2c0,0.4-0.3,0.7-0.7,0.7h-1.1c-0.4,0-0.7-0.3-0.7-0.7V9.1
				c0-0.4,0.3-0.7,0.7-0.7h1.1c0.4,0,0.7,0.3,0.7,0.7V10.2z"/>
			<path id="패스_5588" class="st1" d="M5.3,14.4H4.2c-0.7,0-1.4,0.6-1.4,1.4v1.1c0,0.7,0.6,1.4,1.4,1.4h1.1
				c0.7,0,1.4-0.6,1.4-1.4v-1.1C6.6,15,6,14.4,5.3,14.4C5.3,14.4,5.3,14.4,5.3,14.4 M6,16.8c0,0.4-0.3,0.7-0.7,0.7H4.2
				c-0.4,0-0.7-0.3-0.7-0.7v-1.1c0-0.4,0.3-0.7,0.7-0.7h1.1c0.4,0,0.7,0.3,0.7,0.7V16.8z"/>
			<path id="패스_5589" class="st1" d="M11.7,14.4h-1.1c-0.7,0-1.4,0.6-1.4,1.4v1.1c0,0.7,0.6,1.4,1.4,1.4h1.1
				c0.7,0,1.4-0.6,1.4-1.4v-1.1C13.1,15,12.5,14.4,11.7,14.4C11.7,14.4,11.7,14.4,11.7,14.4 M12.4,16.8c0,0.4-0.3,0.7-0.7,0.7h-1.1
				c-0.4,0-0.7-0.3-0.7-0.7v-1.1c0-0.4,0.3-0.7,0.7-0.7h1.1c0.4,0,0.7,0.3,0.7,0.7V16.8z"/>
			<path id="패스_5590" class="st1" d="M20.4,15l-1.7-0.2L18,13.2c-0.1-0.2-0.3-0.2-0.5-0.2c-0.1,0-0.1,0.1-0.2,0.2l-0.8,1.5
				L14.9,15c-0.1,0-0.2,0.1-0.3,0.2c0,0.1,0,0.3,0.1,0.3l1.2,1.2l-0.3,1.7c0,0.2,0.1,0.4,0.3,0.4c0.1,0,0.1,0,0.2,0l1.5-0.8l1.5,0.8
				c0.1,0.1,0.3,0.1,0.4,0c0.1-0.1,0.2-0.2,0.1-0.3l-0.3-1.7l1.2-1.2c0.1-0.1,0.1-0.3,0-0.5C20.6,15.1,20.5,15,20.4,15 M18.8,16.4
				c-0.1,0.1-0.1,0.2-0.1,0.3l0.2,1.2l-1.1-0.6c0,0-0.1,0-0.2,0c-0.1,0-0.1,0-0.2,0l-1.1,0.6l0.2-1.2c0-0.1,0-0.2-0.1-0.3l-0.9-0.8
				l1.2-0.2c0.1,0,0.2-0.1,0.3-0.2l0.5-1.1l0.5,1.1c0,0.1,0.1,0.2,0.3,0.2l1.2,0.2L18.8,16.4z"/>
		</g>
	</g>
</g>
</svg>
